<svg t="1663206731646" class="icon" viewBox="0 0 1024 1024" version="1.1" xmlns="http://www.w3.org/2000/svg" p-id="2346" width="200" height="200"><path d="M184.9344 855.3984a25.6 25.6 0 0 1-22.016-38.144l399.8208-692.5312a25.6 25.6 0 0 1 44.032 25.6L206.9504 842.6496a25.6 25.6 0 0 1-22.016 12.7488z" fill="#212A38" p-id="2347"></path><path d="M871.3728 855.3984a25.6 25.6 0 0 1-22.016-12.7488L449.536 150.1696a25.6 25.6 0 0 1 44.032-25.6l399.8208 692.5312a25.6 25.6 0 0 1-22.016 38.144z" fill="#212A38" p-id="2348"></path><path d="M955.4432 858.2656h-335.0016a25.6 25.6 0 0 1-22.016-12.7488l-70.7072-122.88-70.5536 122.88a25.6 25.6 0 0 1-21.9648 12.7488H100.864a25.6 25.6 0 0 1 0-50.8416h319.5392l85.248-148.48a25.6 25.6 0 0 1 22.0672-12.8 25.6 25.6 0 0 1 22.0672 12.7488l85.4016 148.48h320.256a25.6 25.6 0 0 1 0 50.8416z" fill="#212A38" p-id="2349"></path><path d="M594.8928 558.08H461.4144a25.6 25.6 0 0 1 0-50.8416h133.4784a25.6 25.6 0 0 1 0 50.8416z" fill="#F49321" p-id="2350"></path></svg>